<?xml version="1.0" encoding="UTF-8" standalone="no"?>
<svg
   version="1.1"
   width="1000"
   height="803"
   viewBox="0 0 1000 803"
   id="svg67"
   sodipodi:docname="iconLight.svg"
   inkscape:version="1.2.2 (b0a8486541, 2022-12-01)"
   xmlns:inkscape="http://www.inkscape.org/namespaces/inkscape"
   xmlns:sodipodi="http://sodipodi.sourceforge.net/DTD/sodipodi-0.dtd"
   xmlns="http://www.w3.org/2000/svg"
   xmlns:svg="http://www.w3.org/2000/svg">
  <defs
     id="defs71" />
  <sodipodi:namedview
     id="namedview69"
     pagecolor="#000000"
     bordercolor="#000000"
     borderopacity="0.25"
     inkscape:showpageshadow="2"
     inkscape:pageopacity="0"
     inkscape:pagecheckerboard="0"
     inkscape:deskcolor="#d1d1d1"
     showgrid="false"
     inkscape:zoom="1.8368618"
     inkscape:cx="494.86575"
     inkscape:cy="402.3166"
     inkscape:window-width="3840"
     inkscape:window-height="2003"
     inkscape:window-x="0"
     inkscape:window-y="86"
     inkscape:window-maximized="1"
     inkscape:current-layer="svg63" />
  <g
     transform="matrix(1,0,0,1,0,0)"
     id="g65">
    <svg
       viewBox="0 0 448 360"
       data-background-color="#001f3f"
       preserveAspectRatio="xMidYMid meet"
       height="803"
       width="1000"
       version="1.1"
       id="svg63">
      <g
         id="tight-bounds"
         transform="matrix(1,0,0,1,0,0)">
        <svg
           viewBox="0 0 448 360"
           height="360"
           width="448"
           version="1.1"
           id="svg58">
          <g
             id="g4">
            <svg
               version="1.1"
               id="svg2" />
          </g>
          <g
             id="g54">
            <svg
               viewBox="0 0 448 360"
               height="360"
               width="448"
               version="1.1"
               id="svg52">
              <g
                 id="g8" />
              <path
                 fill="#ec3a63"
                 d="m 316.83932,161.41961 c -12.57103,17.42638 -23.39892,29.72297 -29.86019,31.44606 -25.68968,6.89235 -59.721,-15.27284 -74.99384,0 -22.5568,22.55679 -30.07573,60.15146 -30.07573,60.15146 l -35.28447,20.05049 C 187.64651,150.00399 279.4013,53.432686 402.46493,12.411266 c 0,0 -5.4437,18.797333 -20.05048,44.154309 -12.37491,3.270109 -25.67027,5.854742 -37.18363,5.854742 5.18869,5.795845 14.56793,11.121756 25.122,14.881222 -3.44617,5.835319 -6.9901,11.787808 -10.65182,17.857466 -13.86303,3.955586 -29.39025,7.362285 -42.64676,7.362285 5.71752,6.38358 16.50656,12.15938 28.35264,15.91884 -2.27134,3.6423 -4.56211,7.22507 -6.83345,10.76962 -16.52599,5.83532 -41.74575,13.41252 -61.62017,13.41252 7.53899,8.41933 23.86886,15.82109 39.88606,18.79734 z m 5.42366,31.44606 V 293.11811 H 121.7581 V 92.61322 H 232.03578 L 272.13676,52.512243 H 81.657116 V 333.21908 H 362.36396 V 142.73944 Z"
                 data-fill-palette-color="accent"
                 id="path25"
                 style="stroke-width:0.626578;fill:#ffffff;fill-opacity:1" />
            </svg>
          </g>
          <defs
             id="defs56" />
        </svg>
        <rect
           width="448"
           height="360"
           fill="none"
           stroke="none"
           visibility="hidden"
           id="rect60" />
      </g>
    </svg>
  </g>
</svg>
