<svg xmlns="http://www.w3.org/2000/svg" viewBox="0 0 1000 803">
    <svg viewBox="0 0 448 360" data-background-color="#001f3f">
        <svg viewBox="0 0 448 360">
            <svg version="1.1" id="svg2" />
            <svg viewBox="0 0 448 360">
                <path fill="#010101"
                    d="M316.84 161.42c-12.572 17.426-23.4 29.723-29.86 31.446-25.69 6.892-59.722-15.273-74.995 0-22.557 22.556-30.075 60.151-30.075 60.151l-35.285 20.05c41.022-123.063 132.776-219.634 255.84-260.656 0 0-5.444 18.798-20.05 44.155-12.375 3.27-25.67 5.854-37.184 5.854 5.189 5.796 14.568 11.122 25.122 14.882A2214.468 2214.468 0 0 1 359.7 95.159c-13.863 3.956-29.39 7.362-42.647 7.362 5.718 6.384 16.507 12.16 28.353 15.92a1035.428 1035.428 0 0 1-6.834 10.769c-16.526 5.835-41.745 13.412-61.62 13.412 7.54 8.42 23.87 15.821 39.886 18.798zm5.423 31.446v100.252H121.758V92.613h110.278l40.1-40.1H81.658v280.706h280.707V142.74Z"
                    data-fill-palette-color="accent" />
            </svg>
        </svg>
    </svg>
</svg>