<?xml version="1.0" encoding="UTF-8" standalone="no"?>
<svg
   version="1.1"
   width="1000"
   height="1000"
   viewBox="0 0 1000 1000"
   id="svg69"
   sodipodi:docname="logo-color.svg"
   inkscape:version="1.2.2 (b0a8486541, 2022-12-01)"
   xmlns:inkscape="http://www.inkscape.org/namespaces/inkscape"
   xmlns:sodipodi="http://sodipodi.sourceforge.net/DTD/sodipodi-0.dtd"
   xmlns="http://www.w3.org/2000/svg"
   xmlns:svg="http://www.w3.org/2000/svg">
  <defs
     id="defs73" />
  <sodipodi:namedview
     id="namedview71"
     pagecolor="#ffffff"
     bordercolor="#000000"
     borderopacity="0.25"
     inkscape:showpageshadow="2"
     inkscape:pageopacity="0.0"
     inkscape:pagecheckerboard="0"
     inkscape:deskcolor="#d1d1d1"
     showgrid="false"
     inkscape:zoom="2.7544578"
     inkscape:cx="448.54563"
     inkscape:cy="507.5409"
     inkscape:window-width="3840"
     inkscape:window-height="2003"
     inkscape:window-x="0"
     inkscape:window-y="86"
     inkscape:window-maximized="1"
     inkscape:current-layer="svg69" />
  <rect
     width="1000"
     height="1000"
     fill="#001f3f"
     id="rect2" />
  <g
     transform="matrix(0.7,0,0,0.7,150,218.95000000000005)"
     id="g67">
    <svg
       viewBox="0 0 448 360"
       data-background-color="#001f3f"
       preserveAspectRatio="xMidYMid meet"
       height="803"
       width="1000"
       version="1.1"
       id="svg65">
      <g
         id="tight-bounds"
         transform="matrix(1,0,0,1,0,0)">
        <svg
           viewBox="0 0 448 360"
           height="360"
           width="448"
           version="1.1"
           id="svg60">
          <g
             id="g6">
            <svg
               version="1.1"
               id="svg4" />
          </g>
          <g
             id="g56">
            <svg
               viewBox="0 0 448 360"
               height="360"
               width="448"
               version="1.1"
               id="svg54">
              <g
                 id="g10">
                <path
                   d="M193.855 44.683c1.378 0 2.494 1.116 2.495 2.494 0 1.378-1.116 2.494-2.495 2.495h-23.846l-17.167 17.167c-0.973 0.973-2.551 0.973-3.53 0-0.973-0.973-0.973-2.551 0-3.529l13.644-13.645h-40.378c-11.518 0-19.151 2.688-23.815 8.113-4.739 5.519-6.66 14.056-6.66 25.63 0 0.069 0 0.137-0.006 0.206l0.212 36.692 14.692-14.692c0.973-0.973 2.551-0.973 3.53 0 0.973 0.973 0.973 2.551 0 3.53l-18.178 18.178c0.206 35.832 0.193 71.358-0.013 107.19 25.486 25.2 50.617 50.312 75.811 75.791h25.38c1.378 0 2.494 1.116 2.495 2.495 0 1.378-1.116 2.494-2.495 2.494h-20.448l25.942 26.241 0.006-0.006c8.188 8.188 15.577 12.859 22.824 13.413 7.146 0.543 14.442-2.956 22.586-11.093l28.555-28.555h-20.722c-1.378 0-2.494-1.116-2.495-2.494 0-1.378 1.116-2.494 2.495-2.495h25.711l16.625-16.625c0.973-0.973 2.551-0.973 3.529 0 0.973 0.973 0.973 2.551 0 3.53l-13.101 13.102h40.377c11.518 0 19.151-2.688 23.815-8.113 4.739-5.519 6.66-14.056 6.66-25.63h0.013l-0.212-36.898-16.014 16.014c-0.973 0.973-2.551 0.973-3.53 0-0.973-0.973-0.973-2.551 0-3.53l19.5-19.5c-0.206-35.832-0.193-71.358 0.013-107.19-25.486-25.2-50.617-50.312-75.811-75.791h-26.147c-1.378 0-2.494-1.116-2.495-2.495 0-1.378 1.116-2.494 2.495-2.494h21.215l-25.824-26.123c-0.044-0.037-0.081-0.075-0.124-0.112-8.188-8.188-15.577-12.859-22.824-13.413-7.146-0.543-14.442 2.956-22.586 11.093l-28.555 28.555h18.858zM122.578 44.683h45.367l32.078-32.078c9.248-9.248 17.81-13.195 26.484-12.534 8.568 0.649 16.956 5.824 25.985 14.854 0.05 0.05 0.094 0.094 0.137 0.143l29.278 29.615h43.508c13.071 0 21.919 3.268 27.594 9.871 5.6 6.517 7.864 16.101 7.864 28.867 0 0.081-0.006 0.156-0.012 0.23l-0.225 39.742 28.43 28.112 0.006-0.006c9.03 9.03 14.206 17.411 14.854 25.985 0.661 8.674-3.293 17.236-12.534 26.484l-30.768 30.768 0.237 41.843h0.012c0 12.765-2.27 22.35-7.864 28.867-5.675 6.604-14.524 9.872-27.594 9.871h-45.366l-32.078 32.078c-9.248 9.248-17.81 13.195-26.484 12.534-8.568-0.649-16.956-5.824-25.985-14.854l0.006-0.006-29.421-29.758h-43.509c-13.071 0-21.919-3.268-27.594-9.872-5.6-6.517-7.864-16.101-7.863-28.866h0.012l0.231-39.972-28.293-27.969c-0.05-0.044-0.1-0.087-0.143-0.137-9.03-9.03-14.206-17.411-14.854-25.985-0.661-8.674 3.293-17.236 12.534-26.484l30.768-30.768-0.237-41.607c-0.006-0.075-0.012-0.156-0.012-0.23 0-12.765 2.27-22.35 7.864-28.867 5.675-6.604 14.524-9.872 27.594-9.871zM87.682 179.997l-0.274-47.724-27.276 27.276c-8.138 8.138-11.636 15.44-11.094 22.587 0.549 7.246 5.226 14.642 13.413 22.823 0.037 0.037 0.081 0.081 0.113 0.125l24.837 24.551 0.281-49.644zM92.303 241.483l-0.2 35.09h0.013c0 11.58 1.921 20.117 6.66 25.63 4.664 5.432 12.297 8.113 23.815 8.113h38.576l-33.55-33.936-35.308-34.903zM325.415 49.672h-38.575l33.549 33.936 35.308 34.902 0.2-34.884c-0.006-0.069-0.006-0.137-0.007-0.205 0-11.58-1.921-20.117-6.66-25.63-4.664-5.432-12.297-8.113-23.815-8.113zM360.599 130.352l-0.281 49.645 0.274 47.724 27.276-27.276c8.138-8.138 11.636-15.44 11.094-22.587-0.549-7.252-5.226-14.642-13.413-22.824l0.006-0.006-24.956-24.669z"
                   fill="#ffffff"
                   fill-rule="nonzero"
                   stroke="none"
                   stroke-width="1"
                   stroke-linecap="butt"
                   stroke-linejoin="miter"
                   stroke-miterlimit="10"
                   stroke-dasharray=""
                   stroke-dashoffset="0"
                   font-family="none"
                   font-weight="none"
                   font-size="none"
                   text-anchor="none"
                   style="mix-blend-mode: normal"
                   data-fill-palette-color="tertiary"
                   id="path8" />
              </g>
              <g
                 transform="matrix(1,0,0,1,112.00000000000001,137.7931977038028)"
                 id="g52">
                <svg
                   viewBox="0 0 223.99999999999997 84.4136045923944"
                   height="84.4136045923944"
                   width="223.99999999999997"
                   version="1.1"
                   id="svg50">
                  <g
                     id="g48">
                    <svg
                       viewBox="0 0 224.00000000000003 84.41360459239442"
                       height="84.4136045923944"
                       width="223.99999999999997"
                       version="1.1"
                       id="svg46">
                      <g
                         transform="matrix(1,0,0,1,0,63.31060440129945)"
                         id="g25">
                        <svg
                           viewBox="0 0 224.00000000000003 21.103000191094974"
                           height="21.103000191094974"
                           width="224.00000000000003"
                           version="1.1"
                           id="svg23" />
                      </g>
                      <g
                         transform="matrix(1,0,0,1,74.83565373590676,0)"
                         id="g34">
                        <svg
                           viewBox="0 0 74.32869252818651 58.328692528186515"
                           height="58.328692528186515"
                           width="74.32869252818651"
                           version="1.1"
                           id="svg32">
                          <g
                             id="g30">
                            <svg
                               version="1.1"
                               x="7.9999999999999964"
                               y="0"
                               viewBox="0 0 512 512"
                               enable-background="new 0 0 512 512"
                               xml:space="preserve"
                               height="58.328692528186515"
                               width="58.328692528186515"
                               class="icon-icon-0"
                               data-fill-palette-color="accent"
                               id="icon-0"><path
                                 fill="#ec3a63"
                                 d="m 601.54326,203.34218 c -58.08952,80.52561 -108.12415,137.34696 -137.98107,145.30918 -118.70956,31.84891 -275.96499,-70.57428 -346.53927,0 C 12.790115,452.88416 -21.954128,626.60549 -21.954128,626.60549 L -185.0003,719.25686 C 4.5557345,150.5917 428.54577,-295.65495 997.21089,-485.21096 c 0,0 -25.15485,86.86067 -92.65135,204.03275 -57.18328,15.11086 -118.61987,27.05422 -171.82198,27.05422 23.97643,26.78201 67.31703,51.39255 116.0863,68.76469 -15.92442,26.96444 -32.30051,54.47033 -49.22098,82.51763 -64.05971,18.278398 -135.8095,34.020443 -197.06654,34.020443 26.42009,29.497875 76.27521,56.187241 131.01478,73.559392 -10.49559,16.830699 -21.08106,33.38632 -31.57671,49.765375 -76.36497,26.964438 -192.90304,61.97797 -284.74081,61.97797 34.83693,38.90489 110.29566,73.10772 184.30966,86.86067 z m 25.0622,145.30919 V 811.90821 H -299.90823 V -114.60548 H 209.6743 L 394.97703,-299.90821 H -485.21098 V 997.21097 H 811.90819 V 117.02294 Z"
                                 data-fill-palette-color="accent"
                                 id="path27"
                                 inkscape:label="path27"
                                 style="stroke-width:2.89536" /></svg>
                          </g>
                        </svg>
                      </g>
                    </svg>
                  </g>
                </svg>
              </g>
            </svg>
          </g>
          <defs
             id="defs58" />
        </svg>
        <rect
           width="448"
           height="360"
           fill="none"
           stroke="none"
           visibility="hidden"
           id="rect62" />
      </g>
    </svg>
  </g>
</svg>
