<?xml version="1.0" encoding="UTF-8" standalone="no"?>
<svg
   version="1.1"
   width="1000"
   height="803"
   viewBox="0 0 1000 803"
   id="svg67"
   sodipodi:docname="logo-bright-no-background.svg"
   inkscape:version="1.2.2 (b0a8486541, 2022-12-01)"
   xmlns:inkscape="http://www.inkscape.org/namespaces/inkscape"
   xmlns:sodipodi="http://sodipodi.sourceforge.net/DTD/sodipodi-0.dtd"
   xmlns="http://www.w3.org/2000/svg"
   xmlns:svg="http://www.w3.org/2000/svg">
  <defs
     id="defs71" />
  <sodipodi:namedview
     id="namedview69"
     pagecolor="#ffffff"
     bordercolor="#000000"
     borderopacity="0.25"
     inkscape:showpageshadow="2"
     inkscape:pageopacity="0"
     inkscape:pagecheckerboard="0"
     inkscape:deskcolor="#d1d1d1"
     showgrid="false"
     inkscape:zoom="1.8368618"
     inkscape:cx="499.76542"
     inkscape:cy="402.3166"
     inkscape:window-width="3840"
     inkscape:window-height="2003"
     inkscape:window-x="0"
     inkscape:window-y="86"
     inkscape:window-maximized="1"
     inkscape:current-layer="svg44" />
  <g
     transform="matrix(1,0,0,1,0,0)"
     id="g65">
    <svg
       viewBox="0 0 448 360"
       data-background-color="#001f3f"
       preserveAspectRatio="xMidYMid meet"
       height="803"
       width="1000"
       version="1.1"
       id="svg63">
      <g
         id="tight-bounds"
         transform="matrix(1,0,0,1,0,0)">
        <svg
           viewBox="0 0 448 360"
           height="360"
           width="448"
           version="1.1"
           id="svg58">
          <g
             id="g4">
            <svg
               version="1.1"
               id="svg2"
               style="fill:#ffffff" />
          </g>
          <g
             id="g54">
            <svg
               viewBox="0 0 448 360"
               height="360"
               width="448"
               version="1.1"
               id="svg52">
              <g
                 id="g8">
                <path
                   d="M193.855 44.683c1.378 0 2.494 1.116 2.495 2.494 0 1.378-1.116 2.494-2.495 2.495h-23.846l-17.167 17.167c-0.973 0.973-2.551 0.973-3.53 0-0.973-0.973-0.973-2.551 0-3.529l13.644-13.645h-40.378c-11.518 0-19.151 2.688-23.815 8.113-4.739 5.519-6.66 14.056-6.66 25.63 0 0.069 0 0.137-0.006 0.206l0.212 36.692 14.692-14.692c0.973-0.973 2.551-0.973 3.53 0 0.973 0.973 0.973 2.551 0 3.53l-18.178 18.178c0.206 35.832 0.193 71.358-0.013 107.19 25.486 25.2 50.617 50.312 75.811 75.791h25.38c1.378 0 2.494 1.116 2.495 2.495 0 1.378-1.116 2.494-2.495 2.494h-20.448l25.942 26.241 0.006-0.006c8.188 8.188 15.577 12.859 22.824 13.413 7.146 0.543 14.442-2.956 22.586-11.093l28.555-28.555h-20.722c-1.378 0-2.494-1.116-2.495-2.494 0-1.378 1.116-2.494 2.495-2.495h25.711l16.625-16.625c0.973-0.973 2.551-0.973 3.529 0 0.973 0.973 0.973 2.551 0 3.53l-13.101 13.102h40.377c11.518 0 19.151-2.688 23.815-8.113 4.739-5.519 6.66-14.056 6.66-25.63h0.013l-0.212-36.898-16.014 16.014c-0.973 0.973-2.551 0.973-3.53 0-0.973-0.973-0.973-2.551 0-3.53l19.5-19.5c-0.206-35.832-0.193-71.358 0.013-107.19-25.486-25.2-50.617-50.312-75.811-75.791h-26.147c-1.378 0-2.494-1.116-2.495-2.495 0-1.378 1.116-2.494 2.495-2.494h21.215l-25.824-26.123c-0.044-0.037-0.081-0.075-0.124-0.112-8.188-8.188-15.577-12.859-22.824-13.413-7.146-0.543-14.442 2.956-22.586 11.093l-28.555 28.555h18.858zM122.578 44.683h45.367l32.078-32.078c9.248-9.248 17.81-13.195 26.484-12.534 8.568 0.649 16.956 5.824 25.985 14.854 0.05 0.05 0.094 0.094 0.137 0.143l29.278 29.615h43.508c13.071 0 21.919 3.268 27.594 9.871 5.6 6.517 7.864 16.101 7.864 28.867 0 0.081-0.006 0.156-0.012 0.23l-0.225 39.742 28.43 28.112 0.006-0.006c9.03 9.03 14.206 17.411 14.854 25.985 0.661 8.674-3.293 17.236-12.534 26.484l-30.768 30.768 0.237 41.843h0.012c0 12.765-2.27 22.35-7.864 28.867-5.675 6.604-14.524 9.872-27.594 9.871h-45.366l-32.078 32.078c-9.248 9.248-17.81 13.195-26.484 12.534-8.568-0.649-16.956-5.824-25.985-14.854l0.006-0.006-29.421-29.758h-43.509c-13.071 0-21.919-3.268-27.594-9.872-5.6-6.517-7.864-16.101-7.863-28.866h0.012l0.231-39.972-28.293-27.969c-0.05-0.044-0.1-0.087-0.143-0.137-9.03-9.03-14.206-17.411-14.854-25.985-0.661-8.674 3.293-17.236 12.534-26.484l30.768-30.768-0.237-41.607c-0.006-0.075-0.012-0.156-0.012-0.23 0-12.765 2.27-22.35 7.864-28.867 5.675-6.604 14.524-9.872 27.594-9.871zM87.682 179.997l-0.274-47.724-27.276 27.276c-8.138 8.138-11.636 15.44-11.094 22.587 0.549 7.246 5.226 14.642 13.413 22.823 0.037 0.037 0.081 0.081 0.113 0.125l24.837 24.551 0.281-49.644zM92.303 241.483l-0.2 35.09h0.013c0 11.58 1.921 20.117 6.66 25.63 4.664 5.432 12.297 8.113 23.815 8.113h38.576l-33.55-33.936-35.308-34.903zM325.415 49.672h-38.575l33.549 33.936 35.308 34.902 0.2-34.884c-0.006-0.069-0.006-0.137-0.007-0.205 0-11.58-1.921-20.117-6.66-25.63-4.664-5.432-12.297-8.113-23.815-8.113zM360.599 130.352l-0.281 49.645 0.274 47.724 27.276-27.276c8.138-8.138 11.636-15.44 11.094-22.587-0.549-7.252-5.226-14.642-13.413-22.824l0.006-0.006-24.956-24.669z"
                   fill="#ffffff"
                   fill-rule="nonzero"
                   stroke="none"
                   stroke-width="1"
                   stroke-linecap="butt"
                   stroke-linejoin="miter"
                   stroke-miterlimit="10"
                   stroke-dasharray=""
                   stroke-dashoffset="0"
                   font-family="none"
                   font-weight="none"
                   font-size="none"
                   text-anchor="none"
                   style="mix-blend-mode:normal;fill:#000000;fill-opacity:1"
                   data-fill-palette-color="tertiary"
                   id="path6" />
              </g>
              <g
                 transform="matrix(1,0,0,1,112.00000000000001,137.7931977038028)"
                 id="g50">
                <svg
                   viewBox="0 0 223.99999999999997 84.4136045923944"
                   height="84.4136045923944"
                   width="223.99999999999997"
                   version="1.1"
                   id="svg48">
                  <g
                     id="g46">
                    <svg
                       viewBox="0 0 224.00000000000003 84.41360459239442"
                       height="84.4136045923944"
                       width="223.99999999999997"
                       version="1.1"
                       id="svg44">
                      <g
                         transform="matrix(1,0,0,1,0,63.31060440129945)"
                         id="g23">
                        <svg
                           viewBox="0 0 224.00000000000003 21.103000191094974"
                           height="21.103000191094974"
                           width="224.00000000000003"
                           version="1.1"
                           id="svg21">
                          <g
                             id="textblocktransform">
                            <svg
                               viewBox="0 0 224.00000000000003 21.103000191094974"
                               height="21.103000191094974"
                               width="224.00000000000003"
                               id="textblock"
                               version="1.1">
                              <g
                                 id="g17">
                                <svg
                                   viewBox="0 0 224.00000000000003 21.103000191094974"
                                   height="21.103000191094974"
                                   width="224.00000000000003"
                                   version="1.1"
                                   id="svg15">
                                <g
                                   id="g13"
                                   transform="matrix(1,0,0,1,0,0)">
                                <svg
                                   width="224.00000000000003"
                                   viewBox="0.9800000190734863 -35.45000076293945 383.25 36.11000061035156"
                                   height="21.103000191094974"
                                   data-palette-color="#ec3a63"
                                   version="1.1"
                                   id="svg11">
                                <path
                                   d="M1.07-0.98L1.07-1.27Q1.07-1.29 1.1-1.38 1.12-1.46 1.27-1.46L1.27-1.46Q1.42-1.46 1.73-1.51 2.05-1.56 2.39-1.61 2.73-1.66 3.03-1.72 3.32-1.78 3.44-1.81L3.44-1.81Q4.83-2.12 5.38-2.84 5.93-3.56 5.93-4.64L5.93-4.64 5.93-29.44Q5.93-30.66 5.42-31.37 4.91-32.08 4.24-32.43 3.56-32.79 2.94-32.87 2.32-32.96 2.1-32.96L2.1-32.96 1.17-32.96Q1.05-32.96 1.01-33.03 0.98-33.11 0.98-33.15L0.98-33.15 0.98-34.23Q0.98-34.28 1-34.34 1.03-34.4 1.17-34.42L1.17-34.42Q1.2-34.42 1.28-34.42 1.37-34.42 1.64-34.44 1.9-34.45 2.42-34.46 2.93-34.47 3.86-34.5L3.86-34.5Q5.2-34.52 6.73-34.57 8.25-34.62 9.81-34.67 11.38-34.72 12.9-34.75 14.43-34.79 15.77-34.79L15.77-34.79 18.24-34.79Q20.17-34.79 22.17-34.13 24.17-33.47 25.79-32.19 27.42-30.91 28.45-29 29.49-27.1 29.49-24.61L29.49-24.61Q29.49-23 29.05-21.74 28.61-20.48 27.84-19.52 27.08-18.55 26.01-17.82 24.95-17.09 23.71-16.53L23.71-16.53 31.1-4.81Q32.06-3.3 33.33-2.06 34.59-0.83 36.28-0.34L36.28-0.34Q36.47-0.29 36.51-0.21 36.55-0.12 36.55 0L36.55 0Q36.55 0.37 36.35 0.49 36.16 0.61 35.74 0.61L35.74 0.61Q34.72 0.61 33.41 0.48 32.1 0.34 30.79 0.04 29.47-0.27 28.28-0.76 27.1-1.25 26.29-1.98L26.29-1.98Q25.51-2.66 24.71-3.71 23.9-4.76 23.08-5.97 22.27-7.18 21.47-8.48 20.68-9.79 19.93-11.04 19.19-12.28 18.51-13.35 17.82-14.43 17.26-15.19L17.26-15.19 13.45-15.45Q13.43-15.45 13.26-15.45 13.09-15.45 13.01-15.41L13.01-15.41Q12.94-15.36 12.92-15.31 12.89-15.26 12.89-15.11L12.89-15.11 12.89-4.71Q12.89-4.05 13.06-3.56 13.23-3.08 13.64-2.72 14.04-2.37 14.69-2.15 15.33-1.93 16.26-1.81L16.26-1.81Q16.41-1.78 16.69-1.73 16.97-1.68 17.3-1.62 17.63-1.56 17.94-1.51 18.26-1.46 18.48-1.46L18.48-1.46Q18.63-1.46 18.65-1.39 18.68-1.32 18.68-1.27L18.68-1.27 18.68-0.2Q18.68-0.15 18.64-0.07 18.6 0 18.48 0L18.48 0 1.27 0Q1.15 0 1.11-0.34 1.07-0.68 1.07-0.98L1.07-0.98ZM12.89-18.63L12.94-17.9Q12.96-17.7 13.05-17.54 13.13-17.38 13.4-17.36L13.4-17.36Q13.62-17.33 14.06-17.27 14.5-17.21 15.28-17.21L15.28-17.21Q17.43-17.21 18.82-17.87 20.21-18.53 21.02-19.64 21.83-20.75 22.13-22.19 22.44-23.63 22.44-25.2L22.44-25.2Q22.44-26.83 21.92-28.3 21.41-29.76 20.5-30.83 19.58-31.91 18.3-32.54 17.02-33.18 15.48-33.18L15.48-33.18Q15.14-33.18 14.94-33.17 14.75-33.15 14.56-33.14 14.38-33.13 14.15-33.12 13.92-33.11 13.5-33.08L13.5-33.08Q13.35-33.08 13.12-33.02 12.89-32.96 12.89-32.69L12.89-32.69 12.89-18.63ZM36.89-30.15L36.89-30.15Q36.89-30.86 36.56-31.41 36.23-31.96 35.67-32.32 35.1-32.69 34.37-32.89 33.64-33.08 32.81-33.08L32.81-33.08Q32.61-33.08 32.61-33.28L32.61-33.28 32.61-34.23Q32.61-34.42 32.79-34.42L32.79-34.42 48.22-34.42Q48.34-34.42 48.37-34.35 48.41-34.28 48.41-34.23L48.41-34.23 48.41-33.28Q48.41-33.23 48.37-33.15 48.34-33.08 48.22-33.08L48.22-33.08Q47.48-33.08 46.71-32.98 45.94-32.89 45.3-32.54 44.65-32.2 44.25-31.56 43.85-30.91 43.85-29.81L43.85-29.81 43.85-12.7Q43.85-7.81 46.34-5.14 48.83-2.47 53.78-2.47L53.78-2.47Q55.83-2.47 57.71-3.04 59.59-3.61 61.03-4.81 62.47-6.01 63.33-7.86 64.18-9.72 64.18-12.28L64.18-12.28 64.18-27.44Q64.18-28.27 64.12-29.15 64.06-30.03 63.72-30.81 63.38-31.59 62.64-32.17 61.91-32.74 60.57-32.96L60.57-32.96Q59.96-33.06 59.56-33.07 59.15-33.08 59.03-33.08L59.03-33.08Q58.84-33.08 58.84-33.28L58.84-33.28 58.84-34.23Q58.84-34.42 59.03-34.42L59.03-34.42 71.77-34.42Q71.9-34.42 71.93-34.35 71.97-34.28 71.97-34.23L71.97-34.23 71.97-33.28Q71.97-33.23 71.92-33.15 71.87-33.08 71.77-33.08L71.77-33.08Q70.9-33.08 70.22-32.95 69.55-32.81 69.21-32.67L69.21-32.67Q68.8-32.5 68.45-32.14 68.11-31.79 67.88-31.38 67.65-30.98 67.53-30.55 67.4-30.13 67.4-29.81L67.4-29.81 67.4-14.18Q67.4-10.74 66.5-8 65.6-5.25 63.78-3.33 61.96-1.42 59.2-0.38 56.44 0.66 52.76 0.66L52.76 0.66Q51 0.66 49.13 0.39 47.26 0.12 45.49-0.46 43.72-1.05 42.16-1.98 40.6-2.91 39.43-4.2 38.25-5.49 37.57-7.18 36.89-8.86 36.89-10.99L36.89-10.99 36.89-30.15ZM73.73 0L73.73 0Q73.6 0 73.57-0.07 73.53-0.15 73.53-0.2L73.53-0.2 73.53-1.51Q73.53-1.56 73.55-1.64 73.58-1.71 73.73-1.71L73.73-1.71 74.31-1.71Q74.38-1.71 74.79-1.75 75.19-1.78 75.72-1.87 76.24-1.95 76.8-2.1 77.36-2.25 77.75-2.47L77.75-2.47Q78.61-2.95 79.02-3.72 79.44-4.49 79.44-5.44L79.44-5.44 79.44-29.81Q79.44-30.69 78.86-31.25 78.29-31.81 77.5-32.14 76.7-32.47 75.89-32.59 75.07-32.71 74.58-32.71L74.58-32.71 74.04-32.71Q73.92-32.71 73.88-32.8 73.85-32.89 73.85-32.91L73.85-32.91 73.85-34.23Q73.85-34.28 73.88-34.35 73.92-34.42 74.04-34.42L74.04-34.42 92.77-34.42Q92.89-34.42 92.93-34.35 92.96-34.28 92.96-34.23L92.96-34.23 92.96-32.91Q92.96-32.86 92.93-32.79 92.89-32.71 92.77-32.71L92.77-32.71 91.72-32.71Q90.35-32.71 89.18-32.5 88.01-32.28 87.28-32.01L87.28-32.01Q86.71-31.81 86.56-31.36 86.4-30.91 86.4-29.81L86.4-29.81 86.4-4.2Q86.45-3.78 86.84-3.42 87.23-3.05 87.71-3.05L87.71-3.05 96.26-3.05Q97.11-3.05 97.88-3.42 98.65-3.78 99.31-4.36 99.97-4.93 100.53-5.62 101.09-6.3 101.56-6.93 102.02-7.57 102.39-8.07 102.75-8.57 103.02-8.79L103.02-8.79Q103.14-8.86 103.3-8.94 103.46-9.01 103.68-9.01L103.68-9.01Q104.1-9.01 104.1-8.69L104.1-8.69Q104.1-8.54 104.02-8.4L104.02-8.4 99.97-0.44Q99.87-0.24 99.75-0.12 99.63 0 99.46 0L99.46 0 73.73 0ZM104.44-0.54L104.44-1.25Q104.44-1.27 104.46-1.35 104.48-1.44 104.63-1.44L104.63-1.44 105.17-1.44Q106.19-1.51 107.27-1.53 108.34-1.54 109.22-1.79 110.1-2.05 110.66-2.7 111.22-3.34 111.22-4.71L111.22-4.71 111.22-29.71Q111.22-30.66 110.83-31.26 110.44-31.86 109.81-32.23 109.17-32.59 108.37-32.78 107.56-32.96 106.73-33.08L106.73-33.08 106.22-33.08Q106.1-33.08 106.06-33.15 106.02-33.23 106.02-33.28L106.02-33.28 106.02-34.23Q106.02-34.28 106.06-34.35 106.1-34.42 106.22-34.42L106.22-34.42 130.53-34.42Q130.97-34.42 131.17-34.27 131.36-34.11 131.41-33.57L131.41-33.57 131.85-25.76Q131.85-25.63 131.65-25.57 131.44-25.51 131.27-25.51L131.27-25.51Q131.07-25.51 130.88-25.56 130.68-25.61 130.61-25.71L130.61-25.71Q130.44-25.95 130.36-26.43 130.29-26.9 130.2-27.49 130.12-28.08 129.96-28.71 129.8-29.35 129.48-29.88 129.17-30.42 128.62-30.82 128.07-31.23 127.21-31.37L127.21-31.37 118.5-31.37Q118.18-31.37 118.18-31.05L118.18-31.05 118.18-19.41Q118.18-19.17 118.43-19.17L118.43-19.17 125.41-19.17Q126.02-19.17 126.62-19.32 127.21-19.48 127.67-19.9 128.12-20.31 128.4-21.06 128.68-21.8 128.68-22.97L128.68-22.97Q128.68-23.17 128.87-23.17L128.87-23.17 129.83-23.17Q130.02-23.17 130.02-22.97L130.02-22.97 130.02-11.79Q130.02-11.67 129.95-11.63 129.88-11.6 129.83-11.6L129.83-11.6 128.87-11.6Q128.75-11.6 128.72-11.67 128.68-11.74 128.68-11.79L128.68-11.79Q128.68-13.16 128.4-14 128.12-14.84 127.65-15.32 127.19-15.8 126.59-15.95 125.99-16.11 125.33-16.11L125.33-16.11 118.43-16.11Q118.18-16.11 118.18-15.87L118.18-15.87 118.18-5.2Q118.18-4.49 118.4-4.06 118.62-3.64 119-3.42 119.38-3.2 119.87-3.13 120.35-3.05 120.89-3.05L120.89-3.05 127.56-3.05Q128.97-3.05 129.92-3.7 130.88-4.35 131.46-5.27 132.05-6.2 132.33-7.2 132.61-8.2 132.68-8.91L132.68-8.91Q132.73-9.23 133-9.41 133.27-9.59 133.61-9.59L133.61-9.59Q133.73-9.59 133.9-9.5 134.07-9.4 134.07-9.28L134.07-9.28 133.27-0.34Q133.22-0.22 133.13-0.11 133.05 0 132.93 0L132.93 0 104.63 0Q104.48 0 104.46-0.09 104.44-0.17 104.44-0.2L104.44-0.2 104.44-0.54ZM138.78-16.99L138.78-16.99Q138.78-19.73 139.47-22.16 140.15-24.58 141.4-26.64 142.64-28.69 144.4-30.32 146.16-31.96 148.29-33.09 150.43-34.23 152.87-34.84 155.31-35.45 157.97-35.45L157.97-35.45Q160.22-35.45 162.31-35.05 164.39-34.64 166.62-34.11L166.62-34.11Q166.98-34.01 167.39-33.86 167.79-33.72 168.14-33.58 168.5-33.45 168.79-33.35 169.08-33.25 169.23-33.25L169.23-33.25Q169.28-33.25 169.56-33.35 169.84-33.45 169.96-33.45L169.96-33.45 171.08-33.45Q171.38-33.45 171.38-33.03L171.38-33.03 171.38-25.07Q171.38-24.93 171.27-24.88 171.16-24.83 170.79-24.83L170.79-24.83Q170.72-24.83 170.41-24.84 170.11-24.85 170.03-24.98L170.03-24.98Q169.99-25.05 169.85-25.27 169.72-25.49 169.56-25.72 169.4-25.95 169.26-26.16 169.13-26.37 169.11-26.44L169.11-26.44Q168.18-28.27 167.08-29.53 165.98-30.79 164.65-31.57 163.32-32.35 161.76-32.7 160.2-33.06 158.36-33.06L158.36-33.06Q156.04-33.06 154.25-32.52 152.46-31.98 151.11-31.01 149.77-30.03 148.85-28.66 147.94-27.29 147.37-25.67 146.79-24.05 146.54-22.2 146.28-20.36 146.28-18.41L146.28-18.41Q146.28-16.33 146.57-14.29 146.87-12.26 147.52-10.41 148.18-8.57 149.22-6.99 150.26-5.42 151.72-4.26 153.19-3.1 155.14-2.44 157.09-1.78 159.56-1.78L159.56-1.78Q161.64-1.78 163.43-2.4 165.22-3.03 166.71-4.09 168.2-5.15 169.36-6.53 170.52-7.91 171.35-9.42L171.35-9.42Q171.4-9.55 171.46-9.56 171.52-9.57 171.65-9.57L171.65-9.57 172.89-9.57Q172.96-9.57 173.05-9.51 173.13-9.45 173.13-9.25L173.13-9.25Q173.13-9.18 173.02-8.87 172.91-8.57 172.79-8.35L172.79-8.35 169.42-0.93Q169.37-0.85 169.28-0.81 169.18-0.76 169.11-0.76L169.11-0.76Q168.52-0.76 168.29-0.85 168.06-0.95 167.81-0.95L167.81-0.95Q167.08-0.95 165.87-0.7 164.66-0.44 163.26-0.15 161.86 0.15 160.43 0.4 159 0.66 157.88 0.66L157.88 0.66Q155.31 0.66 152.9 0.1 150.48-0.46 148.35-1.53 146.23-2.59 144.47-4.14 142.71-5.69 141.45-7.64 140.18-9.59 139.48-11.95 138.78-14.31 138.78-16.99ZM176.09-0.98L176.09-1.27Q176.09-1.29 176.11-1.38 176.13-1.46 176.28-1.46L176.28-1.46Q176.43-1.46 176.75-1.51 177.06-1.56 177.4-1.61 177.75-1.66 178.04-1.72 178.33-1.78 178.45-1.81L178.45-1.81Q179.85-2.12 180.4-2.84 180.94-3.56 180.94-4.64L180.94-4.64 180.94-29.44Q180.94-30.66 180.43-31.37 179.92-32.08 179.25-32.43 178.58-32.79 177.95-32.87 177.33-32.96 177.11-32.96L177.11-32.96 176.18-32.96Q176.06-32.96 176.03-33.03 175.99-33.11 175.99-33.15L175.99-33.15 175.99-34.23Q175.99-34.28 176.01-34.34 176.04-34.4 176.18-34.42L176.18-34.42Q176.21-34.42 176.29-34.42 176.38-34.42 176.65-34.44 176.92-34.45 177.43-34.46 177.94-34.47 178.87-34.5L178.87-34.5Q180.21-34.52 181.74-34.57 183.26-34.62 184.83-34.67 186.39-34.72 187.91-34.75 189.44-34.79 190.78-34.79L190.78-34.79 193.25-34.79Q195.18-34.79 197.18-34.13 199.18-33.47 200.81-32.19 202.43-30.91 203.47-29 204.5-27.1 204.5-24.61L204.5-24.61Q204.5-23 204.06-21.74 203.63-20.48 202.86-19.52 202.09-18.55 201.03-17.82 199.96-17.09 198.72-16.53L198.72-16.53 206.12-4.81Q207.07-3.3 208.34-2.06 209.61-0.83 211.29-0.34L211.29-0.34Q211.49-0.29 211.52-0.21 211.56-0.12 211.56 0L211.56 0Q211.56 0.37 211.36 0.49 211.17 0.61 210.75 0.61L210.75 0.61Q209.73 0.61 208.42 0.48 207.12 0.34 205.8 0.04 204.48-0.27 203.3-0.76 202.11-1.25 201.31-1.98L201.31-1.98Q200.52-2.66 199.72-3.71 198.91-4.76 198.1-5.97 197.28-7.18 196.48-8.48 195.69-9.79 194.95-11.04 194.2-12.28 193.52-13.35 192.83-14.43 192.27-15.19L192.27-15.19 188.46-15.45Q188.44-15.45 188.27-15.45 188.1-15.45 188.02-15.41L188.02-15.41Q187.95-15.36 187.93-15.31 187.9-15.26 187.9-15.11L187.9-15.11 187.9-4.71Q187.9-4.05 188.07-3.56 188.24-3.08 188.65-2.72 189.05-2.37 189.7-2.15 190.34-1.93 191.27-1.81L191.27-1.81Q191.42-1.78 191.7-1.73 191.98-1.68 192.31-1.62 192.64-1.56 192.96-1.51 193.27-1.46 193.49-1.46L193.49-1.46Q193.64-1.46 193.66-1.39 193.69-1.32 193.69-1.27L193.69-1.27 193.69-0.2Q193.69-0.15 193.65-0.07 193.62 0 193.49 0L193.49 0 176.28 0Q176.16 0 176.12-0.34 176.09-0.68 176.09-0.98L176.09-0.98ZM187.9-18.63L187.95-17.9Q187.98-17.7 188.06-17.54 188.15-17.38 188.42-17.36L188.42-17.36Q188.63-17.33 189.07-17.27 189.51-17.21 190.3-17.21L190.3-17.21Q192.44-17.21 193.84-17.87 195.23-18.53 196.03-19.64 196.84-20.75 197.14-22.19 197.45-23.63 197.45-25.2L197.45-25.2Q197.45-26.83 196.94-28.3 196.42-29.76 195.51-30.83 194.59-31.91 193.31-32.54 192.03-33.18 190.49-33.18L190.49-33.18Q190.15-33.18 189.95-33.17 189.76-33.15 189.57-33.14 189.39-33.13 189.16-33.12 188.93-33.11 188.51-33.08L188.51-33.08Q188.37-33.08 188.13-33.02 187.9-32.96 187.9-32.69L187.9-32.69 187.9-18.63ZM211.97-0.2L211.97-1.15Q211.97-1.34 212.17-1.34L212.17-1.34Q212.63-1.37 213.25-1.48 213.88-1.59 214.52-1.94 215.17-2.29 215.78-2.99 216.39-3.69 216.81-4.91L216.81-4.91 226.62-33.37Q226.62-33.35 226.63-33.4 226.65-33.45 226.65-33.5L226.65-33.5Q226.65-33.67 226.51-33.92 226.38-34.18 226.38-34.3L226.38-34.3Q226.38-34.42 226.47-34.42L226.47-34.42 233.55-34.42Q233.6-34.4 233.69-34.38 233.77-34.35 233.82-34.23L233.82-34.23 244.15-5.25Q244.39-4.57 244.61-4.08 244.83-3.59 245.14-3.21 245.44-2.83 245.91-2.53 246.37-2.22 247.1-1.9L247.1-1.9Q247.45-1.73 248.03-1.54 248.62-1.34 249.15-1.34L249.15-1.34Q249.28-1.34 249.31-1.27 249.35-1.2 249.35-1.12L249.35-1.12 249.35-0.2Q249.35-0.15 249.31-0.07 249.28 0 249.15 0L249.15 0 232.02 0Q231.89 0 231.86-0.07 231.82-0.15 231.82-0.2L231.82-0.2 231.82-1.15Q231.82-1.2 231.86-1.27 231.89-1.34 232.02-1.34L232.02-1.34Q232.11-1.34 232.21-1.35 232.31-1.37 232.36-1.37L232.36-1.37Q232.63-1.39 233.13-1.42 233.63-1.44 234.21-1.5 234.8-1.56 235.4-1.7 236-1.83 236.48-2.09 236.97-2.34 237.29-2.76 237.61-3.17 237.61-3.78L237.61-3.78Q237.61-3.93 237.56-4.13L237.56-4.13 234.36-12.94Q234.34-12.99 234.27-13.16 234.21-13.33 234.08-13.51 233.94-13.7 233.74-13.84 233.53-13.99 233.24-13.99L233.24-13.99 224.42-13.99Q224.11-13.99 223.89-13.84 223.67-13.7 223.52-13.53 223.37-13.35 223.29-13.18 223.2-13.01 223.2-12.99L223.2-12.99Q222.42-10.69 221.88-9.12 221.35-7.54 220.99-6.52 220.64-5.49 220.44-4.93 220.25-4.37 220.16-4.11 220.08-3.86 220.07-3.8 220.05-3.74 220.05-3.74L220.05-3.74Q220.05-3.66 220.08-3.58 220.1-3.49 220.13-3.42L220.13-3.42Q220.32-2.81 220.85-2.4 221.37-2 222.06-1.77 222.74-1.54 223.46-1.44 224.18-1.34 224.74-1.34L224.74-1.34 225.38-1.34Q225.5-1.34 225.53-1.27 225.57-1.2 225.57-1.15L225.57-1.15 225.57-0.2Q225.57-0.15 225.53-0.07 225.5 0 225.38 0L225.38 0 212.17 0Q211.97 0 211.97-0.2L211.97-0.2ZM227.84-26.39L224.77-17.5Q224.72-17.38 224.69-17.26 224.67-17.14 224.67-17.02L224.67-17.02Q224.67-16.87 224.74-16.78 224.81-16.7 225.03-16.7L225.03-16.7 232.36-16.7Q232.63-16.7 232.71-16.81 232.8-16.92 232.8-17.07L232.8-17.07Q232.8-17.19 232.77-17.29 232.75-17.38 232.7-17.5L232.7-17.5 229.45-26.42Q229.33-26.76 229.09-26.92 228.84-27.08 228.65-27.08L228.65-27.08Q228.45-27.08 228.21-26.89 227.96-26.71 227.84-26.39L227.84-26.39ZM271.15-20L271.15-20Q271.49-20 272.05-20.06 272.61-20.12 273.14-20.42 273.66-20.73 274.04-21.37 274.42-22.02 274.42-23.19L274.42-23.19Q274.42-23.39 274.62-23.39L274.62-23.39 275.57-23.39Q275.76-23.39 275.76-23.19L275.76-23.19 275.76-13.38Q275.76-13.26 275.69-13.22 275.62-13.18 275.57-13.18L275.57-13.18 274.62-13.18Q274.49-13.18 274.46-13.26 274.42-13.33 274.42-13.38L274.42-13.38Q274.42-14.7 274.04-15.42 273.66-16.14 273.15-16.48 272.64-16.82 272.09-16.88 271.54-16.94 271.2-16.94L271.2-16.94 263.04-16.94Q262.75-16.94 262.6-16.76 262.46-16.58 262.46-16.28L262.46-16.28 262.46-4.59Q262.46-3.93 262.71-3.48 262.97-3.03 263.42-2.7 263.87-2.37 264.48-2.12 265.09-1.88 265.83-1.66L265.83-1.66Q266.19-1.54 266.61-1.44 267.02-1.34 267.29-1.34L267.29-1.34Q267.44-1.34 267.46-1.26 267.49-1.17 267.49-1.15L267.49-1.15 267.49-0.2Q267.49-0.15 267.45-0.07 267.41 0 267.29 0L267.29 0 251.76 0Q251.64 0 251.61-0.07 251.57-0.15 251.57-0.2L251.57-0.2 251.57-1.15Q251.57-1.2 251.59-1.27 251.62-1.34 251.76-1.34L251.76-1.34Q252.03-1.34 252.46-1.45 252.89-1.56 253.11-1.66L253.11-1.66Q254.16-2.12 254.83-2.89 255.5-3.66 255.5-4.76L255.5-4.76 255.5-30.76Q255.5-31.69 254.99-32.23 254.47-32.76 253.83-33.03 253.18-33.3 252.61-33.37 252.03-33.45 251.89-33.45L251.89-33.45 251.79-33.45Q251.67-33.45 251.63-33.52 251.59-33.59 251.59-33.64L251.59-33.64 251.59-34.23Q251.59-34.28 251.63-34.35 251.67-34.42 251.79-34.42L251.79-34.42 275.91-34.42Q276.2-34.38 276.35-34.29 276.5-34.2 276.5-33.86L276.5-33.86 276.5-27.22Q276.5-26.93 276.33-26.86 276.15-26.78 275.93-26.78L275.93-26.78 275.45-26.78Q275.4-26.81 275.31-27.21 275.23-27.61 275.08-28.16 274.93-28.71 274.73-29.26 274.52-29.81 274.25-30.13L274.25-30.13Q273.91-30.49 273.59-30.74 273.27-30.98 272.88-31.13 272.49-31.27 271.98-31.32 271.47-31.37 270.73-31.37L270.73-31.37 262.95-31.37Q262.46-31.37 262.46-30.88L262.46-30.88 262.46-20.56Q262.46-20 263.04-20L263.04-20 271.15-20ZM293.9-30.69L293.9-30.69Q293.9-31.2 293.69-31.26 293.49-31.32 293.19-31.37L293.19-31.37 284.92-31.37Q284.01-31.18 283.5-30.65 282.99-30.13 282.69-29.42 282.4-28.71 282.26-27.89 282.11-27.08 281.94-26.32L281.94-26.32Q281.89-26.1 281.84-25.79 281.79-25.49 281.74-25.44L281.74-25.44Q281.69-25.37 281.57-25.37L281.57-25.37 280.77-25.37Q280.62-25.37 280.62-25.46L280.62-25.46 280.62-26.27 281.52-34.62Q281.57-34.89 281.74-35.13 281.91-35.38 282.28-35.38L282.28-35.38Q282.45-35.38 282.61-35.28 282.77-35.18 282.91-35.05 283.06-34.91 283.2-34.79 283.33-34.67 283.48-34.62L283.48-34.62Q283.77-34.5 284.03-34.46 284.28-34.42 284.6-34.42L284.6-34.42 310.19-34.42Q310.5-34.42 310.76-34.46 311.02-34.5 311.31-34.62L311.31-34.62Q311.45-34.67 311.59-34.79 311.72-34.91 311.87-35.05 312.02-35.18 312.17-35.28 312.33-35.38 312.5-35.38L312.5-35.38Q312.87-35.38 313.04-35.13 313.21-34.89 313.26-34.62L313.26-34.62 314.16-26.27 314.16-25.46Q314.16-25.37 314.02-25.37L314.02-25.37 313.21-25.37Q313.09-25.37 313.04-25.44L313.04-25.44Q312.99-25.49 312.94-25.79 312.9-26.1 312.85-26.32L312.85-26.32Q312.68-27.08 312.53-27.89 312.38-28.71 312.09-29.42 311.8-30.13 311.28-30.65 310.77-31.18 309.87-31.37L309.87-31.37 301.57-31.37Q301.27-31.32 301.07-31.26 300.86-31.2 300.86-30.69L300.86-30.69 300.86-4.76Q300.86-4.03 301.23-3.45 301.59-2.88 302.21-2.44 302.84-2 303.68-1.73 304.52-1.46 305.47-1.37L305.47-1.37Q305.74-1.34 306.16-1.34 306.57-1.34 306.86-1.34L306.86-1.34Q306.99-1.34 307.02-1.27 307.06-1.2 307.06-1.15L307.06-1.15 307.06-0.2Q307.06-0.15 307.02-0.07 306.99 0 306.86 0L306.86 0 287.9 0Q287.77 0 287.74-0.07 287.7-0.15 287.7-0.2L287.7-0.2 287.7-1.15Q287.7-1.2 287.74-1.27 287.77-1.34 287.9-1.34L287.9-1.34Q288.16-1.34 288.59-1.34 289.02-1.34 289.29-1.37L289.29-1.37Q290.24-1.46 291.08-1.73 291.92-2 292.55-2.44 293.17-2.88 293.53-3.45 293.9-4.03 293.9-4.76L293.9-4.76 293.9-30.69ZM315.9-0.54L315.9-1.25Q315.9-1.27 315.92-1.35 315.94-1.44 316.09-1.44L316.09-1.44 316.63-1.44Q317.65-1.51 318.73-1.53 319.8-1.54 320.68-1.79 321.56-2.05 322.12-2.7 322.68-3.34 322.68-4.71L322.68-4.71 322.68-29.71Q322.68-30.66 322.29-31.26 321.9-31.86 321.27-32.23 320.63-32.59 319.83-32.78 319.02-32.96 318.19-33.08L318.19-33.08 317.68-33.08Q317.56-33.08 317.52-33.15 317.48-33.23 317.48-33.28L317.48-33.28 317.48-34.23Q317.48-34.28 317.52-34.35 317.56-34.42 317.68-34.42L317.68-34.42 341.99-34.42Q342.43-34.42 342.63-34.27 342.82-34.11 342.87-33.57L342.87-33.57 343.31-25.76Q343.31-25.63 343.1-25.57 342.9-25.51 342.73-25.51L342.73-25.51Q342.53-25.51 342.34-25.56 342.14-25.61 342.07-25.71L342.07-25.71Q341.9-25.95 341.82-26.43 341.75-26.9 341.66-27.49 341.58-28.08 341.42-28.71 341.26-29.35 340.94-29.88 340.63-30.42 340.08-30.82 339.53-31.23 338.67-31.37L338.67-31.37 329.96-31.37Q329.64-31.37 329.64-31.05L329.64-31.05 329.64-19.41Q329.64-19.17 329.88-19.17L329.88-19.17 336.87-19.17Q337.48-19.17 338.08-19.32 338.67-19.48 339.13-19.9 339.58-20.31 339.86-21.06 340.14-21.8 340.14-22.97L340.14-22.97Q340.14-23.17 340.33-23.17L340.33-23.17 341.29-23.17Q341.48-23.17 341.48-22.97L341.48-22.97 341.48-11.79Q341.48-11.67 341.41-11.63 341.33-11.6 341.29-11.6L341.29-11.6 340.33-11.6Q340.21-11.6 340.18-11.67 340.14-11.74 340.14-11.79L340.14-11.79Q340.14-13.16 339.86-14 339.58-14.84 339.11-15.32 338.65-15.8 338.05-15.95 337.45-16.11 336.79-16.11L336.79-16.11 329.88-16.11Q329.64-16.11 329.64-15.87L329.64-15.87 329.64-5.2Q329.64-4.49 329.86-4.06 330.08-3.64 330.46-3.42 330.84-3.2 331.33-3.13 331.81-3.05 332.35-3.05L332.35-3.05 339.02-3.05Q340.43-3.05 341.38-3.7 342.34-4.35 342.92-5.27 343.51-6.2 343.79-7.2 344.07-8.2 344.14-8.91L344.14-8.91Q344.19-9.23 344.46-9.41 344.73-9.59 345.07-9.59L345.07-9.59Q345.19-9.59 345.36-9.5 345.53-9.4 345.53-9.28L345.53-9.28 344.73-0.34Q344.68-0.22 344.59-0.11 344.51 0 344.39 0L344.39 0 316.09 0Q315.94 0 315.92-0.09 315.9-0.17 315.9-0.2L315.9-0.2 315.9-0.54ZM348.75-0.98L348.75-1.27Q348.75-1.29 348.78-1.38 348.8-1.46 348.95-1.46L348.95-1.46Q349.1-1.46 349.41-1.51 349.73-1.56 350.07-1.61 350.41-1.66 350.71-1.72 351-1.78 351.12-1.81L351.12-1.81Q352.51-2.12 353.06-2.84 353.61-3.56 353.61-4.64L353.61-4.64 353.61-29.44Q353.61-30.66 353.1-31.37 352.59-32.08 351.92-32.43 351.24-32.79 350.62-32.87 350-32.96 349.78-32.96L349.78-32.96 348.85-32.96Q348.73-32.96 348.69-33.03 348.66-33.11 348.66-33.15L348.66-33.15 348.66-34.23Q348.66-34.28 348.68-34.34 348.71-34.4 348.85-34.42L348.85-34.42Q348.88-34.42 348.96-34.42 349.05-34.42 349.32-34.44 349.58-34.45 350.1-34.46 350.61-34.47 351.54-34.5L351.54-34.5Q352.88-34.52 354.41-34.57 355.93-34.62 357.49-34.67 359.06-34.72 360.58-34.75 362.11-34.79 363.45-34.79L363.45-34.79 365.92-34.79Q367.85-34.79 369.85-34.13 371.85-33.47 373.47-32.19 375.1-30.91 376.13-29 377.17-27.1 377.17-24.61L377.17-24.61Q377.17-23 376.73-21.74 376.29-20.48 375.52-19.52 374.76-18.55 373.69-17.82 372.63-17.09 371.39-16.53L371.39-16.53 378.78-4.81Q379.74-3.3 381.01-2.06 382.27-0.83 383.96-0.34L383.96-0.34Q384.15-0.29 384.19-0.21 384.23-0.12 384.23 0L384.23 0Q384.23 0.37 384.03 0.49 383.84 0.61 383.42 0.61L383.42 0.61Q382.4 0.61 381.09 0.48 379.78 0.34 378.47 0.04 377.15-0.27 375.96-0.76 374.78-1.25 373.97-1.98L373.97-1.98Q373.19-2.66 372.39-3.71 371.58-4.76 370.76-5.97 369.95-7.18 369.15-8.48 368.36-9.79 367.61-11.04 366.87-12.28 366.19-13.35 365.5-14.43 364.94-15.19L364.94-15.19 361.13-15.45Q361.11-15.45 360.94-15.45 360.77-15.45 360.69-15.41L360.69-15.41Q360.62-15.36 360.6-15.31 360.57-15.26 360.57-15.11L360.57-15.11 360.57-4.71Q360.57-4.05 360.74-3.56 360.91-3.08 361.32-2.72 361.72-2.37 362.37-2.15 363.01-1.93 363.94-1.81L363.94-1.81Q364.09-1.78 364.37-1.73 364.65-1.68 364.98-1.62 365.31-1.56 365.62-1.51 365.94-1.46 366.16-1.46L366.16-1.46Q366.31-1.46 366.33-1.39 366.36-1.32 366.36-1.27L366.36-1.27 366.36-0.2Q366.36-0.15 366.32-0.07 366.28 0 366.16 0L366.16 0 348.95 0Q348.83 0 348.79-0.34 348.75-0.68 348.75-0.98L348.75-0.98ZM360.57-18.63L360.62-17.9Q360.64-17.7 360.73-17.54 360.81-17.38 361.08-17.36L361.08-17.36Q361.3-17.33 361.74-17.27 362.18-17.21 362.96-17.21L362.96-17.21Q365.11-17.21 366.5-17.87 367.89-18.53 368.7-19.64 369.51-20.75 369.81-22.19 370.12-23.63 370.12-25.2L370.12-25.2Q370.12-26.83 369.6-28.3 369.09-29.76 368.18-30.83 367.26-31.91 365.98-32.54 364.7-33.18 363.16-33.18L363.16-33.18Q362.82-33.18 362.62-33.17 362.43-33.15 362.24-33.14 362.06-33.13 361.83-33.12 361.6-33.11 361.18-33.08L361.18-33.08Q361.03-33.08 360.8-33.02 360.57-32.96 360.57-32.69L360.57-32.69 360.57-18.63Z"
                                   opacity="1"
                                   fill="#ec3a63"
                                   class="wordmark-text-0"
                                   data-fill-palette-color="primary"
                                   id="text-0"
                                   transform="matrix(1,0,0,1,0,0)" />
                                </svg>
                                </g>
                                </svg>
                              </g>
                            </svg>
                          </g>
                        </svg>
                      </g>
                      <g
                         id="g42">
                        <rect
                           width="74.83565373590673"
                           height="1.9030903355291422"
                           y="55.42560219265737"
                           x="149.16434626409327"
                           fill="#ec3a63"
                           data-fill-palette-color="accent"
                           id="rect34" />
                        <rect
                           width="74.83565373590673"
                           height="1.9030903355291422"
                           y="55.42560219265737"
                           x="2.842170943040401e-14"
                           fill="#ec3a63"
                           data-fill-palette-color="accent"
                           id="rect36" />
                        <rect
                           width="74.83565373590673"
                           height="1.9030903355291422"
                           y="51.61942152159909"
                           x="149.16434626409327"
                           fill="#ec3a63"
                           data-fill-palette-color="accent"
                           id="rect38" />
                        <rect
                           width="74.83565373590673"
                           height="1.9030903355291422"
                           y="51.61942152159909"
                           x="2.842170943040401e-14"
                           fill="#ec3a63"
                           data-fill-palette-color="accent"
                           id="rect40" />
                      </g>
                      <path
                         fill="#ec3a63"
                         d="M375.344 237.813C355.281 265.625 338 285.25 327.688 288c-41 11-95.313-24.375-119.688 0-36 36-48 96-48 96l-56.313 32C169.156 219.594 315.594 65.469 512 0c0 0-8.688 30-32 70.469-19.75 5.219-40.969 9.344-59.344 9.344 8.281 9.25 23.25 17.75 40.094 23.75-5.5 9.313-11.156 18.813-17 28.5-22.125 6.313-46.906 11.75-68.063 11.75 9.125 10.188 26.344 19.406 45.25 25.406-3.625 5.813-7.281 11.531-10.906 17.188-26.375 9.313-66.625 21.406-98.344 21.406C323.719 221.25 349.781 233.063 375.344 237.813zM384 288v160H64V128h176l64-64H0v448h448V208L384 288z"
                         data-fill-palette-color="accent"
                         id="path25"
                         transform="matrix(0.11392323,0,0,0.11392323,82.835656,-1.1907268e-6)" />
                    </svg>
                  </g>
                </svg>
              </g>
            </svg>
          </g>
          <defs
             id="defs56" />
        </svg>
        <rect
           width="448"
           height="360"
           fill="none"
           stroke="none"
           visibility="hidden"
           id="rect60" />
      </g>
    </svg>
  </g>
</svg>
